<svg xmlns="http://www.w3.org/2000/svg" viewBox="146.466 254.056 96.35 65.63">
  <path d="M 193.8895 318.9209 C 193.0644 318.6225 190.9196 317.7032 189.1231 316.8781 C 187.2908 316.0366 184.622 315.6248 183.0445 315.9403 C 179.7279 316.6036 177.8154 314.8092 176.2959 309.6082 C 175.2851 306.1484 175.2374 306.1238 170.143 306.4371 C 165.3215 306.7336 164.9149 306.5711 163.4665 303.7704 C 162.4832 301.8689 160.6138 300.3554 158.3087 299.5947 C 155.5392 298.6806 154.2534 297.4328 152.8133 294.2614 C 151.7793 291.9844 150.9235 288.9839 150.9114 287.5938 C 150.8993 286.2037 150.1214 283.9698 149.1827 282.6296 C 148.244 281.2894 147.1856 277.9299 146.8308 275.1641 C 146.243 270.5822 146.4604 269.7794 149.2772 266.1284 C 150.9776 263.9245 152.4158 262.0039 152.4734 261.8604 C 152.7591 261.1476 168.8333 264.0587 171.7833 265.3575 C 174.4286 266.5221 175.9726 266.6197 178.7833 265.8 C 182.5115 264.7128 187.5101 265.1985 188.4632 266.7407 C 189.4238 268.2949 197.6159 267.7765 198.2511 266.1213 C 198.5677 265.2963 199.7408 264.6213 200.8581 264.6213 C 201.9753 264.6213 202.8895 264.2411 202.8895 263.7763 C 202.8895 262.3676 199.3441 259.6213 197.5255 259.6213 C 196.1381 259.6213 196.016 259.2533 196.8725 257.653 C 197.6865 256.132 198.4332 255.8726 200.1577 256.5116 C 201.3852 256.9664 207.8984 257.3572 214.6316 257.38 C 225.2314 257.4159 227.2014 257.1638 229.3163 255.5002 C 231.746 253.589 231.7879 253.5933 237.3241 256.3085 C 243.3237 259.2509 243.9869 260.1382 240.9155 261.113 C 237.2034 262.2912 234.8895 266.5009 234.8895 272.0762 C 234.8895 276.5708 234.4165 277.8139 231.3383 281.4101 C 228.1762 285.1042 227.8618 285.9732 228.4687 289.3401 C 228.8435 291.4198 229.5926 293.6789 230.1332 294.3604 C 230.6738 295.0418 230.8197 297.1793 230.4575 299.1104 C 229.8035 302.5963 229.7618 302.6211 224.5941 302.5895 C 221.6123 302.5713 218.5604 301.9307 217.4483 301.0895 C 214.1513 298.5957 211.8895 299.2139 211.8895 302.6088 C 211.8895 305.016 211.0977 306.0961 207.813 308.1696 C 205.2887 309.7631 203.1518 312.1476 202.2006 314.4321 C 200.1219 319.4251 198.1812 320.4732 193.8895 318.9209 Z" fill="#000000"/>
</svg>